<svg width="20" height="20" viewBox="0 0 20 20" fill="none" xmlns="http://www.w3.org/2000/svg">
<g id="support, like, question">
<path id="Vector" d="M11.4417 2.9248L12.9083 5.85813C13.1083 6.26647 13.6417 6.65813 14.0917 6.73313L16.75 7.1748C18.45 7.45813 18.85 8.69146 17.625 9.90813L15.5583 11.9748C15.2083 12.3248 15.0167 12.9998 15.125 13.4831L15.7167 16.0415C16.1833 18.0665 15.1083 18.8498 13.3167 17.7915L10.825 16.3165C10.375 16.0498 9.63332 16.0498 9.17499 16.3165L6.68332 17.7915C4.89999 18.8498 3.81665 18.0581 4.28332 16.0415L4.87499 13.4831C4.98332 12.9998 4.79165 12.3248 4.44165 11.9748L2.37499 9.90813C1.15832 8.69146 1.54999 7.45813 3.24999 7.1748L5.90832 6.73313C6.34999 6.65813 6.88332 6.26647 7.08332 5.85813L8.54999 2.9248C9.34999 1.33313 10.65 1.33313 11.4417 2.9248Z" fill="#132C38" stroke="#132C38" stroke-width="1.875" stroke-linecap="round" stroke-linejoin="round"/>
</g>
</svg>
