<svg width="120" height="21" viewBox="0 0 120 21" fill="none" xmlns="http://www.w3.org/2000/svg">
<path d="M13.5932 0.180663V3.34067H4.22405V8.33015H13.122V11.6149H4.18247V20H0.578951V0.180663H13.5932ZM19.83 10.0349C19.83 14.6455 21.8767 16.9509 25.9699 16.9509C29.9615 16.9509 31.9573 14.6455 31.9573 10.0349C31.9573 5.49816 29.9615 3.22979 25.9699 3.22979C21.8767 3.22979 19.83 5.49816 19.83 10.0349ZM16.0186 10.1181C16.0186 3.40073 19.3357 0.0420663 25.9699 0.0420663C32.5024 0.0420663 35.7687 3.40073 35.7687 10.1181C35.7687 16.7984 32.5024 20.1386 25.9699 20.1386C19.6314 20.1386 16.3143 16.7984 16.0186 10.1181ZM42.3659 10.0349C42.3659 14.6455 44.4125 16.9509 48.5057 16.9509C52.4973 16.9509 54.4931 14.6455 54.4931 10.0349C54.4931 5.49816 52.4973 3.22979 48.5057 3.22979C44.4125 3.22979 42.3659 5.49816 42.3659 10.0349ZM38.5545 10.1181C38.5545 3.40073 41.8715 0.0420663 48.5057 0.0420663C55.0382 0.0420663 58.3045 3.40073 58.3045 10.1181C58.3045 16.7984 55.0382 20.1386 48.5057 20.1386C42.1672 20.1386 38.8501 16.7984 38.5545 10.1181ZM74.7421 0.180663V3.36839H69.0596V20H65.3868V3.36839H59.7043V0.180663H74.7421ZM80.1612 16.6321C81.002 16.9001 81.9768 17.034 83.0856 17.034C85.3031 17.034 86.4119 15.4679 86.4119 12.3356C86.4119 9.77618 85.4556 8.49647 83.543 8.49647C82.3048 8.49647 81.1776 8.74594 80.1612 9.24489V16.6321ZM76.4884 0.180663H80.1612V6.55611C81.2607 5.81693 82.485 5.44734 83.834 5.44734C87.9734 5.44734 90.0432 7.77577 90.0432 12.4326C90.0432 17.4775 87.6732 20 82.9331 20C80.9374 20 78.7891 19.8013 76.4884 19.404V0.180663ZM92.1221 15.4679C92.1221 12.5758 94.2288 11.1298 98.4421 11.1298C99.4308 11.1298 100.419 11.2222 101.408 11.407V10.3121C101.408 9.00928 100.47 8.35787 98.5946 8.35787C97.0053 8.35787 95.2405 8.58887 93.3002 9.05086V6.14032C95.2405 5.67833 97.0053 5.44734 98.5946 5.44734C102.919 5.44734 105.081 7.04582 105.081 10.2428V20H102.947L101.644 18.6972C100.378 19.5657 98.9826 20 97.4581 20C93.9008 20 92.1221 18.4893 92.1221 15.4679ZM101.408 13.9017C100.484 13.7169 99.4955 13.6245 98.4421 13.6245C96.6773 13.6245 95.7949 14.2251 95.7949 15.4263C95.7949 16.7199 96.5341 17.3667 98.0125 17.3667C99.2321 17.3667 100.364 16.9878 101.408 16.2302V13.9017ZM112.232 0.180663V20H108.56V0.180663H112.232ZM119.384 0.180663V20H115.711V0.180663H119.384Z" fill="white"/>
</svg>
