<svg xmlns="http://www.w3.org/2000/svg" xmlns:xlink="http://www.w3.org/1999/xlink" fill="none"><symbol id="icon__apple" viewBox="0 0 25 24"><path d="M22.184 18.703c-.363.839-.792 1.61-1.29 2.32-.679.968-1.234 1.637-1.662 2.009-.664.61-1.375.923-2.137.94-.546 0-1.205-.155-1.973-.47-.77-.314-1.477-.47-2.124-.47-.679 0-1.406.156-2.185.47-.78.315-1.407.48-1.887.496-.73.031-1.458-.29-2.185-.966-.464-.404-1.044-1.098-1.738-2.08-.746-1.049-1.359-2.265-1.839-3.652-.514-1.497-.772-2.948-.772-4.352 0-1.608.348-2.995 1.044-4.158a6.122 6.122 0 012.186-2.21 5.88 5.88 0 012.955-.835c.58 0 1.34.18 2.286.532.942.354 1.547.533 1.813.533.198 0 .87-.21 2.01-.628 1.078-.388 1.987-.548 2.732-.485 2.02.163 3.537.96 4.545 2.393-1.806 1.094-2.699 2.627-2.681 4.593.016 1.531.572 2.806 1.664 3.817.494.47 1.047.833 1.662 1.09-.134.387-.274.758-.424 1.113zM17.554.48c0 1.2-.44 2.321-1.313 3.358-1.055 1.234-2.331 1.946-3.714 1.834a3.742 3.742 0 01-.028-.455c0-1.152.501-2.386 1.392-3.394.445-.51 1.01-.935 1.696-1.273.685-.334 1.332-.518 1.941-.55.018.16.025.32.025.48z" fill="#fff"/></symbol><symbol id="icon__arrow--down" viewBox="0 0 24 24"><path fill-rule="evenodd" clip-rule="evenodd" d="M7.47 9.47a.75.75 0 011.06 0L12 12.94l3.47-3.47a.75.75 0 111.06 1.06l-4 4a.75.75 0 01-1.06 0l-4-4a.75.75 0 010-1.06z" fill="#3C3C43" fill-opacity=".92"/></symbol><symbol id="icon__breadcrumbs-arrow" viewBox="0 0 24 24"><path d="M8.91 20.67c-.19 0-.38-.07-.53-.22a.754.754 0 010-1.06l6.52-6.52c.48-.48.48-1.26 0-1.74L8.38 4.61a.754.754 0 010-1.06c.29-.29.77-.29 1.06 0l6.52 6.52c.51.51.8 1.2.8 1.93s-.28 1.42-.8 1.93l-6.52 6.52c-.15.14-.34.22-.53.22z" fill="#fff" fill-opacity=".4"/></symbol><symbol id="icon__checked" viewBox="0 0 12 13"><path d="M10 4L4.854 9.147a.5.5 0 01-.708 0L2 7" stroke="#fff" stroke-width="1.67" stroke-linecap="round"/></symbol><symbol id="icon__close" viewBox="0 0 513 513"><path fill-rule="evenodd" clip-rule="evenodd" d="M7.506 7.506c9.675-9.675 25.361-9.675 35.036 0l462.452 462.452c9.675 9.675 9.675 25.361 0 35.036s-25.361 9.675-35.036 0L7.506 42.542c-9.675-9.675-9.675-25.36 0-35.036z" fill="#fff"/><path fill-rule="evenodd" clip-rule="evenodd" d="M504.994 7.506c9.675 9.675 9.675 25.361 0 35.036L42.542 504.994c-9.675 9.675-25.36 9.675-35.036 0-9.675-9.675-9.675-25.361 0-35.036L469.958 7.506c9.675-9.675 25.361-9.675 35.036 0z" fill="#fff"/></symbol><symbol id="icon__default" viewBox="0 0 48 48"><path fill="#f7df1e" d="M6 42V6h36v36H6z"/><path fill="#000001" d="M29.538 32.947c.692 1.124 1.444 2.201 3.037 2.201 1.338 0 2.04-.665 2.04-1.585 0-1.101-.726-1.492-2.198-2.133l-.807-.344c-2.329-.988-3.878-2.226-3.878-4.841 0-2.41 1.845-4.244 4.728-4.244 2.053 0 3.528.711 4.592 2.573l-2.514 1.607c-.553-.988-1.151-1.377-2.078-1.377-.946 0-1.545.597-1.545 1.377 0 .964.6 1.354 1.985 1.951l.807.344C36.452 29.645 38 30.839 38 33.523 38 36.415 35.716 38 32.65 38c-2.999 0-4.702-1.505-5.65-3.368l2.538-1.685zm-11.586.082c.506.906 1.275 1.603 2.381 1.603 1.058 0 1.667-.418 1.667-2.043V22h3.333v11.101c0 3.367-1.953 4.899-4.805 4.899-2.577 0-4.437-1.746-5.195-3.368l2.619-1.603z"/></symbol><symbol id="icon__fb" viewBox="0 0 25 24"><path d="M24.5 12c0-6.627-5.373-12-12-12S.5 5.373.5 12c0 5.99 4.388 10.954 10.125 11.854V15.47H7.578V12h3.047V9.356c0-3.007 1.792-4.668 4.533-4.668 1.312 0 2.686.234 2.686.234v2.953H16.33c-1.491 0-1.956.925-1.956 1.875V12h3.328l-.532 3.469h-2.796v8.385C20.112 22.954 24.5 17.99 24.5 12z" fill="#fff"/></symbol><symbol id="icon__google" viewBox="0 0 25 24"><g fill="#fff"><path d="M24.263 12.276c0-.816-.066-1.636-.207-2.438h-11.32v4.62h6.482a5.554 5.554 0 01-2.398 3.647v2.998h3.867c2.27-2.09 3.576-5.176 3.576-8.827z"/><path d="M12.737 24c3.237 0 5.966-1.062 7.955-2.897l-3.867-2.998c-1.076.732-2.465 1.146-4.083 1.146-3.131 0-5.785-2.112-6.738-4.951h-3.99v3.09A12.002 12.002 0 0012.737 24z"/><path d="M6 14.3a7.188 7.188 0 010-4.594V6.615H2.014a12.01 12.01 0 000 10.776L6 14.301z"/><path d="M12.737 4.75a6.521 6.521 0 014.604 1.799l3.426-3.427a11.533 11.533 0 00-8.03-3.121A11.998 11.998 0 002.014 6.615L6 9.705c.948-2.843 3.607-4.955 6.737-4.955z"/></g></symbol><symbol id="icon__home" viewBox="0 0 24 24"><g fill="#fff" fill-opacity=".88"><path d="M12 18.75c-.41 0-.75-.34-.75-.75v-3c0-.41.34-.75.75-.75s.75.34.75.75v3c0 .41-.34.75-.75.75z"/><path d="M17.6 22.56H6.4c-1.82 0-3.48-1.4-3.78-3.19L1.29 11.4c-.22-1.24.39-2.83 1.38-3.62L9.6 2.23c1.34-1.08 3.45-1.07 4.8.01l6.93 5.54c.98.79 1.58 2.38 1.38 3.62l-1.33 7.96c-.3 1.77-2 3.2-3.78 3.2zM11.99 2.93c-.53 0-1.06.16-1.45.47L3.61 8.96c-.56.45-.96 1.49-.84 2.2l1.33 7.96c.18 1.05 1.23 1.94 2.3 1.94h11.2c1.07 0 2.12-.89 2.3-1.95l1.33-7.96c.11-.7-.29-1.76-.84-2.2l-6.93-5.54c-.4-.32-.94-.48-1.47-.48z"/></g></symbol><symbol id="icon__inst" viewBox="0 0 25 24"><g fill="#fff"><path d="M17.35 0h-9.7C3.707 0 .5 3.207.5 7.15v9.7C.5 20.793 3.707 24 7.65 24h9.7c3.943 0 7.15-3.207 7.15-7.15v-9.7C24.5 3.207 21.293 0 17.35 0zm4.736 16.85a4.735 4.735 0 01-4.736 4.736h-9.7a4.735 4.735 0 01-4.736-4.736v-9.7A4.735 4.735 0 017.65 2.414h9.7a4.735 4.735 0 014.736 4.736v9.7z"/><path d="M12.5 5.793A6.214 6.214 0 006.293 12a6.214 6.214 0 006.207 6.207A6.214 6.214 0 0018.707 12 6.214 6.214 0 0012.5 5.793zm0 10a3.793 3.793 0 110-7.586 3.793 3.793 0 010 7.586zM18.719 7.327a1.487 1.487 0 100-2.975 1.487 1.487 0 000 2.975z"/></g></symbol><symbol id="icon__logo-white" viewBox="0 0 120 21"><path d="M13.593.18v3.16H4.224v4.99h8.898v3.285h-8.94V20H.58V.18h13.014zm6.237 9.855c0 4.61 2.047 6.916 6.14 6.916 3.992 0 5.987-2.306 5.987-6.916 0-4.537-1.995-6.805-5.987-6.805-4.093 0-6.14 2.268-6.14 6.805zm-3.811.083c0-6.717 3.317-10.076 9.95-10.076 6.533 0 9.8 3.359 9.8 10.076 0 6.68-3.267 10.02-9.8 10.02-6.338 0-9.655-3.34-9.95-10.02zm26.347-.083c0 4.61 2.047 6.916 6.14 6.916 3.991 0 5.987-2.306 5.987-6.916 0-4.537-1.996-6.805-5.987-6.805-4.093 0-6.14 2.268-6.14 6.805zm-3.812.083c0-6.717 3.317-10.076 9.952-10.076 6.532 0 9.798 3.359 9.798 10.076 0 6.68-3.266 10.02-9.798 10.02-6.339 0-9.656-3.34-9.952-10.02zM74.743.181v3.187H69.06V20h-3.673V3.368h-5.683V.181h15.038zm5.42 16.451c.84.268 1.815.402 2.924.402 2.217 0 3.326-1.566 3.326-4.698 0-2.56-.956-3.84-2.869-3.84-1.238 0-2.365.25-3.382.749v7.387zM76.487.181h3.673v6.375a6.438 6.438 0 013.673-1.109c4.14 0 6.21 2.329 6.21 6.986 0 5.044-2.37 7.567-7.11 7.567-1.997 0-4.145-.199-6.446-.596V.181zm15.634 15.287c0-2.892 2.107-4.338 6.32-4.338.989 0 1.977.092 2.966.277v-1.095c0-1.303-.938-1.954-2.813-1.954-1.59 0-3.355.23-5.295.693V6.14c1.94-.463 3.705-.694 5.295-.694 4.324 0 6.486 1.599 6.486 4.796V20h-2.134l-1.303-1.303A7.24 7.24 0 0197.458 20c-3.557 0-5.336-1.51-5.336-4.532zm9.286-1.566a15.113 15.113 0 00-2.966-.277c-1.765 0-2.647.6-2.647 1.801 0 1.294.74 1.94 2.218 1.94 1.22 0 2.351-.378 3.395-1.136v-2.328zM112.232.18V20h-3.672V.18h3.672zm7.152 0V20h-3.673V.18h3.673z" fill="#fff"/></symbol><symbol id="icon__logo" viewBox="0 0 123 38"><path d="M15.093 9.18v3.16H5.724v4.99h8.898v3.285h-8.94V29H2.08V9.18h13.014zm6.237 9.855c0 4.61 2.047 6.916 6.14 6.916 3.992 0 5.987-2.306 5.987-6.916 0-4.537-1.995-6.805-5.987-6.805-4.093 0-6.14 2.268-6.14 6.805zm-3.811.083c0-6.717 3.317-10.076 9.95-10.076 6.533 0 9.8 3.359 9.8 10.076 0 6.68-3.267 10.02-9.8 10.02-6.338 0-9.655-3.34-9.95-10.02zm26.347-.083c0 4.61 2.047 6.916 6.14 6.916 3.991 0 5.987-2.306 5.987-6.916 0-4.537-1.996-6.805-5.987-6.805-4.093 0-6.14 2.268-6.14 6.805zm-3.812.083c0-6.717 3.317-10.076 9.952-10.076 6.532 0 9.798 3.359 9.798 10.076 0 6.68-3.266 10.02-9.798 10.02-6.339 0-9.656-3.34-9.952-10.02zm36.188-9.937v3.187H70.56V29h-3.673V12.368h-5.683V9.181h15.038z" fill="#0D99E7"/><path d="M81.661 25.632c.841.268 1.816.402 2.925.402 2.217 0 3.326-1.566 3.326-4.698 0-2.56-.956-3.84-2.869-3.84-1.238 0-2.365.25-3.382.749v7.387zM77.988 9.181h3.673v6.375a6.438 6.438 0 013.673-1.109c4.14 0 6.21 2.329 6.21 6.986 0 5.044-2.37 7.567-7.11 7.567-1.997 0-4.145-.199-6.446-.596V9.181zm15.634 15.287c0-2.892 2.107-4.338 6.32-4.338.989 0 1.977.092 2.966.277v-1.095c0-1.303-.938-1.954-2.813-1.954-1.59 0-3.355.23-5.295.693v-2.91c1.94-.463 3.705-.694 5.295-.694 4.324 0 6.486 1.599 6.486 4.796V29h-2.134l-1.303-1.303A7.24 7.24 0 0198.958 29c-3.557 0-5.336-1.51-5.336-4.532zm9.286-1.566a15.116 15.116 0 00-2.966-.277c-1.765 0-2.647.6-2.647 1.801 0 1.294.74 1.94 2.218 1.94 1.219 0 2.351-.378 3.395-1.136v-2.328zM113.732 9.18V29h-3.672V9.18h3.672zm7.152 0V29h-3.673V9.18h3.673z" fill="#fff"/></symbol><symbol id="icon__radiobutton" viewBox="0 0 20 20"><rect width="20" height="20" rx="10" fill="#0D99E7"/><path d="M14.521 6l-6.429 8L5 10.957" stroke="#130F26" stroke-width="1.5" stroke-miterlimit="10" stroke-linecap="round" stroke-linejoin="round"/></symbol><symbol id="icon__select-arrow" viewBox="0 0 20 20"><path fill-rule="evenodd" clip-rule="evenodd" d="M10.008 8.562l4.223 5.078a1 1 0 101.538-1.28l-4.99-6a1 1 0 00-1.537 0l-5.01 6a1 1 0 001.536 1.281l4.24-5.079z" fill="#0D99E7"/></symbol><symbol id="icon__star" viewBox="0 0 20 20"><path d="M11.442 2.925l1.466 2.933c.2.408.734.8 1.184.875l2.658.442c1.7.283 2.1 1.516.875 2.733l-2.067 2.067c-.35.35-.541 1.025-.433 1.508l.592 2.558c.466 2.026-.609 2.809-2.4 1.75l-2.492-1.474c-.45-.267-1.192-.267-1.65 0L6.683 17.79c-1.783 1.059-2.866.267-2.4-1.75l.592-2.558c.108-.483-.083-1.158-.433-1.508L2.375 9.908c-1.217-1.217-.825-2.45.875-2.733l2.658-.442c.442-.075.975-.467 1.175-.875L8.55 2.925c.8-1.592 2.1-1.592 2.892 0z" fill="currentColor" stroke="currentColor" stroke-width="1.875" stroke-linecap="round" stroke-linejoin="round"/></symbol><symbol id="icon__video" viewBox="0 0 46 46"><path d="M7.667 23v-6.823c0-8.472 5.999-11.94 13.34-7.705l5.922 3.412 5.923 3.411c7.34 4.236 7.34 11.175 0 15.41l-5.923 3.412-5.922 3.412c-7.341 4.235-13.34.766-13.34-7.705V23z" fill="#D9D9D9"/></symbol><symbol id="logo__default" viewBox="0 0 87 24"><rect x="3" y="3" width="8" height="8" rx="1" fill="#646CFF"/><rect x="12.5" y="2.5" width="9" height="9" rx="4.5" fill="#BD34FE"/><rect x="3" y="13" width="8" height="8" rx="1" fill="#646CFF"/><rect x="13" y="13" width="8" height="8" rx="1" fill="#646CFF"/><path d="M33.148 18V6.364h4.454c.841 0 1.54.132 2.097.397.56.262.979.62 1.256 1.074.28.455.42.97.42 1.546 0 .473-.09.878-.273 1.216a2.294 2.294 0 01-.733.812c-.306.208-.65.358-1.028.449v.114c.413.022.809.15 1.187.38.383.227.696.55.938.966.242.417.364.92.364 1.511 0 .603-.146 1.144-.438 1.625-.292.478-.731.855-1.318 1.131-.587.277-1.326.415-2.216.415h-4.71zm2.108-1.761h2.267c.765 0 1.316-.146 1.653-.438.341-.295.511-.674.511-1.136a1.74 1.74 0 00-.982-1.591c-.315-.163-.69-.245-1.125-.245h-2.324v3.41zm0-4.927h2.085c.364 0 .691-.066.983-.198.291-.137.52-.328.687-.574.17-.25.256-.546.256-.887 0-.45-.159-.822-.477-1.113-.315-.292-.782-.438-1.404-.438h-2.13v3.21zm13.879 3.018V9.272h2.057V18h-1.995v-1.551h-.09c-.197.488-.521.888-.972 1.199-.447.31-.998.466-1.654.466-.571 0-1.077-.127-1.517-.381a2.646 2.646 0 01-1.022-1.12c-.246-.492-.37-1.086-.37-1.784V9.273h2.057v5.238c0 .553.152.993.455 1.319.303.325.7.488 1.193.488.303 0 .597-.074.88-.221a1.79 1.79 0 00.7-.66c.185-.295.278-.664.278-1.107zM53.307 18V9.273h2.057V18h-2.057zm1.034-9.966a1.2 1.2 0 01-.841-.324 1.044 1.044 0 01-.352-.79c0-.31.117-.573.352-.79.235-.219.515-.329.84-.329.33 0 .61.11.842.33.235.216.352.479.352.79 0 .306-.117.57-.352.79a1.187 1.187 0 01-.841.323zm5.194-1.67V18H57.48V6.364h2.056zm5.354 11.79c-.685 0-1.299-.177-1.84-.529-.542-.352-.97-.864-1.285-1.534-.314-.67-.471-1.485-.471-2.443 0-.97.159-1.788.477-2.455.322-.67.756-1.176 1.301-1.517a3.344 3.344 0 011.824-.517c.511 0 .932.087 1.261.261.33.17.591.377.784.62.194.238.343.464.45.676h.084V6.364h2.063V18h-2.023v-1.375h-.125c-.106.212-.26.438-.46.676-.2.235-.466.436-.796.602-.329.167-.744.25-1.244.25zm.574-1.688c.436 0 .807-.117 1.114-.352.306-.239.54-.57.699-.995.159-.424.238-.918.238-1.483 0-.564-.08-1.055-.238-1.471-.156-.417-.387-.74-.694-.972-.303-.23-.676-.346-1.119-.346-.458 0-.84.119-1.148.357-.306.24-.537.569-.693.99-.155.42-.233.9-.233 1.442 0 .546.078 1.033.233 1.46.16.425.392.76.699 1.006.31.243.691.364 1.142.364zm10.13 1.704c-.876 0-1.631-.181-2.268-.545a3.694 3.694 0 01-1.46-1.557c-.34-.674-.511-1.468-.511-2.38 0-.898.17-1.686.511-2.364a3.866 3.866 0 011.443-1.591c.618-.383 1.343-.574 2.176-.574.538 0 1.046.087 1.523.261.481.17.905.436 1.273.796.371.36.663.818.875 1.375.212.553.318 1.212.318 1.977v.63H72.32v-1.386H77.5a2.212 2.212 0 00-.255-1.05c-.167-.311-.4-.556-.7-.734a1.965 1.965 0 00-1.033-.267c-.42 0-.79.103-1.108.307-.318.2-.567.466-.745.796a2.29 2.29 0 00-.266 1.073v1.21c0 .508.092.944.278 1.307.186.36.445.637.778.83.334.19.724.284 1.17.284.3 0 .57-.042.813-.125.243-.087.453-.214.63-.38.179-.167.313-.374.404-.62l1.92.216c-.12.508-.352.95-.692 1.33a3.379 3.379 0 01-1.296.875c-.526.204-1.129.306-1.807.306zm5.62-.17V9.273h1.994v1.454h.091c.16-.504.432-.892.819-1.165.39-.276.835-.414 1.335-.414.113 0 .24.005.38.017.144.007.264.02.358.04v1.892a2.167 2.167 0 00-.414-.08 3.82 3.82 0 00-.54-.04 2.08 2.08 0 00-1.012.245c-.295.159-.528.38-.698.664-.17.285-.256.612-.256.983V18h-2.057z" fill="CurrentColor" fill-opacity=".92"/></symbol><view id="icon__video-view" viewBox="0 0 46 46"/>
<use href="#icon__video" width="46" height="46" x="0" y="0"/>

<view id="icon__select-arrow-view" viewBox="0 80 20 20"/>
<use href="#icon__select-arrow" width="20" height="20" x="0" y="80"/>

<view id="icon__breadcrumbs-arrow-view" viewBox="0 160 24 24"/>
<use href="#icon__breadcrumbs-arrow" width="24" height="24" x="0" y="160"/>

<view id="icon__radiobutton-view" viewBox="0 240 20 20"/>
<use href="#icon__radiobutton" width="20" height="20" x="0" y="240"/>

<view id="icon__checked-view" viewBox="0 320 12 12"/>
<use href="#icon__checked" width="12" height="12" x="0" y="320"/>
</svg>